<?xml version="1.0" encoding="UTF-8" standalone="no"?>
<!DOCTYPE svg PUBLIC "-//W3C//DTD SVG 1.1//EN"
 "http://www.w3.org/Graphics/SVG/1.1/DTD/svg11.dtd">
<!-- Generated by graphviz version 16.1.0 (20260904.0139)
 -->
<!-- Title: G Pages: 1 -->
<svg width="1184pt" height="279pt"
 viewBox="0.00 0.00 1184.00 279.00" xmlns="http://www.w3.org/2000/svg" xmlns:xlink="http://www.w3.org/1999/xlink">
<g id="graph0" class="graph" transform="scale(1 1) rotate(0) translate(4 275)">
<title>G</title>
<polygon fill="white" stroke="none" points="-4,4 -4,-275 1179.75,-275 1179.75,4 -4,4"/>
<!-- aws_instance.web -->
<g id="node1" class="node">
<title>aws_instance.web</title>
<polygon fill="none" stroke="black" points="1097.38,-136 971.12,-136 971.12,-100 1097.38,-100 1097.38,-136"/>
<text xml:space="preserve" text-anchor="middle" x="1034.25" y="-112.2" font-family="sans-serif" font-size="14.00">aws_instance.web</text>
</g>
<!-- aws_route_table_association.public -->
<g id="node6" class="node">
<title>aws_route_table_association.public</title>
<polygon fill="none" stroke="black" points="856.75,-190 627.75,-190 627.75,-154 856.75,-154 856.75,-190"/>
<text xml:space="preserve" text-anchor="middle" x="742.25" y="-166.2" font-family="sans-serif" font-size="14.00">aws_route_table_association.public</text>
</g>
<!-- aws_instance.web&#45;&gt;aws_route_table_association.public -->
<g id="edge1" class="edge">
<title>aws_instance.web&#45;&gt;aws_route_table_association.public</title>
<path fill="none" stroke="black" d="M970.68,-129.65C936.51,-136.01 893.2,-144.08 853.56,-151.46"/>
<polygon fill="black" stroke="black" points="853.17,-147.97 843.98,-153.24 854.45,-154.85 853.17,-147.97"/>
</g>
<!-- aws_security_group.web -->
<g id="node10" class="node">
<title>aws_security_group.web</title>
<polygon fill="none" stroke="black" points="824.5,-136 660,-136 660,-100 824.5,-100 824.5,-136"/>
<text xml:space="preserve" text-anchor="middle" x="742.25" y="-112.2" font-family="sans-serif" font-size="14.00">aws_security_group.web</text>
</g>
<!-- aws_instance.web&#45;&gt;aws_security_group.web -->
<g id="edge2" class="edge">
<title>aws_instance.web&#45;&gt;aws_security_group.web</title>
<path fill="none" stroke="black" d="M970.68,-118C931.47,-118 880.21,-118 836.29,-118"/>
<polygon fill="black" stroke="black" points="836.51,-114.5 826.51,-118 836.51,-121.5 836.51,-114.5"/>
</g>
<!-- aws_internet_gateway.main -->
<g id="node2" class="node">
<title>aws_internet_gateway.main</title>
<polygon fill="none" stroke="black" points="321.5,-230 138.25,-230 138.25,-194 321.5,-194 321.5,-230"/>
<text xml:space="preserve" text-anchor="middle" x="229.88" y="-206.2" font-family="sans-serif" font-size="14.00">aws_internet_gateway.main</text>
</g>
<!-- aws_vpc.main -->
<g id="node13" class="node">
<title>aws_vpc.main</title>
<polygon fill="none" stroke="black" points="102.25,-136 0,-136 0,-100 102.25,-100 102.25,-136"/>
<text xml:space="preserve" text-anchor="middle" x="51.12" y="-112.2" font-family="sans-serif" font-size="14.00">aws_vpc.main</text>
</g>
<!-- aws_internet_gateway.main&#45;&gt;aws_vpc.main -->
<g id="edge3" class="edge">
<title>aws_internet_gateway.main&#45;&gt;aws_vpc.main</title>
<path fill="none" stroke="black" d="M180.63,-193.65C166.71,-187.86 151.67,-181.1 138.25,-174 120.76,-164.74 102.25,-152.99 86.89,-142.64"/>
<polygon fill="black" stroke="black" points="89.25,-140.02 79.02,-137.27 85.31,-145.8 89.25,-140.02"/>
</g>
<!-- aws_route_table.private -->
<g id="node3" class="node">
<title>aws_route_table.private</title>
<polygon fill="none" stroke="black" points="309.5,-90 150.25,-90 150.25,-54 309.5,-54 309.5,-90"/>
<text xml:space="preserve" text-anchor="middle" x="229.88" y="-66.2" font-family="sans-serif" font-size="14.00">aws_route_table.private</text>
</g>
<!-- aws_route_table.private&#45;&gt;aws_vpc.main -->
<g id="edge4" class="edge">
<title>aws_route_table.private&#45;&gt;aws_vpc.main</title>
<path fill="none" stroke="black" d="M158,-90.44C143.23,-94.29 127.78,-98.31 113.39,-102.05"/>
<polygon fill="black" stroke="black" points="112.89,-98.57 104.09,-104.48 114.65,-105.34 112.89,-98.57"/>
</g>
<!-- aws_route_table.public -->
<g id="node4" class="node">
<title>aws_route_table.public</title>
<polygon fill="none" stroke="black" points="551.62,-236 397.62,-236 397.62,-200 551.62,-200 551.62,-236"/>
<text xml:space="preserve" text-anchor="middle" x="474.62" y="-212.2" font-family="sans-serif" font-size="14.00">aws_route_table.public</text>
</g>
<!-- aws_route_table.public&#45;&gt;aws_internet_gateway.main -->
<g id="edge5" class="edge">
<title>aws_route_table.public&#45;&gt;aws_internet_gateway.main</title>
<path fill="none" stroke="black" d="M397.15,-216.11C376.89,-215.61 354.68,-215.06 333.28,-214.53"/>
<polygon fill="black" stroke="black" points="333.44,-211.03 323.35,-214.29 333.26,-218.03 333.44,-211.03"/>
</g>
<!-- aws_route_table_association.private -->
<g id="node5" class="node">
<title>aws_route_table_association.private</title>
<polygon fill="none" stroke="black" points="591.75,-63 357.5,-63 357.5,-27 591.75,-27 591.75,-63"/>
<text xml:space="preserve" text-anchor="middle" x="474.62" y="-39.2" font-family="sans-serif" font-size="14.00">aws_route_table_association.private</text>
</g>
<!-- aws_route_table_association.private&#45;&gt;aws_route_table.private -->
<g id="edge6" class="edge">
<title>aws_route_table_association.private&#45;&gt;aws_route_table.private</title>
<path fill="none" stroke="black" d="M357.23,-57.95C345.06,-59.3 332.82,-60.66 321,-61.98"/>
<polygon fill="black" stroke="black" points="320.88,-58.47 311.32,-63.05 321.65,-65.43 320.88,-58.47"/>
</g>
<!-- aws_subnet.private -->
<g id="node11" class="node">
<title>aws_subnet.private</title>
<polygon fill="none" stroke="black" points="296,-36 163.75,-36 163.75,0 296,0 296,-36"/>
<text xml:space="preserve" text-anchor="middle" x="229.88" y="-12.2" font-family="sans-serif" font-size="14.00">aws_subnet.private</text>
</g>
<!-- aws_route_table_association.private&#45;&gt;aws_subnet.private -->
<g id="edge7" class="edge">
<title>aws_route_table_association.private&#45;&gt;aws_subnet.private</title>
<path fill="none" stroke="black" d="M357.23,-32.05C340.39,-30.18 323.42,-28.29 307.62,-26.54"/>
<polygon fill="black" stroke="black" points="308.17,-23.08 297.85,-25.45 307.4,-30.03 308.17,-23.08"/>
</g>
<!-- aws_route_table_association.public&#45;&gt;aws_route_table.public -->
<g id="edge8" class="edge">
<title>aws_route_table_association.public&#45;&gt;aws_route_table.public</title>
<path fill="none" stroke="black" d="M634.74,-190.44C610.93,-194.57 585.94,-198.9 563,-202.87"/>
<polygon fill="black" stroke="black" points="562.67,-199.37 553.41,-204.53 563.86,-206.27 562.67,-199.37"/>
</g>
<!-- aws_subnet.public -->
<g id="node12" class="node">
<title>aws_subnet.public</title>
<polygon fill="none" stroke="black" points="538.12,-182 411.12,-182 411.12,-146 538.12,-146 538.12,-182"/>
<text xml:space="preserve" text-anchor="middle" x="474.62" y="-158.2" font-family="sans-serif" font-size="14.00">aws_subnet.public</text>
</g>
<!-- aws_route_table_association.public&#45;&gt;aws_subnet.public -->
<g id="edge9" class="edge">
<title>aws_route_table_association.public&#45;&gt;aws_subnet.public</title>
<path fill="none" stroke="black" d="M627.45,-168.57C601.07,-167.78 573.67,-166.95 549.52,-166.23"/>
<polygon fill="black" stroke="black" points="549.93,-162.74 539.83,-165.93 549.72,-169.73 549.93,-162.74"/>
</g>
<!-- aws_s3_bucket.assets -->
<g id="node7" class="node">
<title>aws_s3_bucket.assets</title>
<polygon fill="none" stroke="black" points="818.12,-244 666.38,-244 666.38,-208 818.12,-208 818.12,-244"/>
<text xml:space="preserve" text-anchor="middle" x="742.25" y="-220.2" font-family="sans-serif" font-size="14.00">aws_s3_bucket.assets</text>
</g>
<!-- aws_s3_bucket_public_access_block.assets -->
<g id="node8" class="node">
<title>aws_s3_bucket_public_access_block.assets</title>
<polygon fill="none" stroke="black" points="1175.75,-271 892.75,-271 892.75,-235 1175.75,-235 1175.75,-271"/>
<text xml:space="preserve" text-anchor="middle" x="1034.25" y="-247.2" font-family="sans-serif" font-size="14.00">aws_s3_bucket_public_access_block.assets</text>
</g>
<!-- aws_s3_bucket_public_access_block.assets&#45;&gt;aws_s3_bucket.assets -->
<g id="edge10" class="edge">
<title>aws_s3_bucket_public_access_block.assets&#45;&gt;aws_s3_bucket.assets</title>
<path fill="none" stroke="black" d="M892.5,-239.9C871.14,-237.91 849.67,-235.91 829.93,-234.07"/>
<polygon fill="black" stroke="black" points="830.3,-230.59 820.02,-233.15 829.65,-237.56 830.3,-230.59"/>
</g>
<!-- aws_s3_bucket_versioning.assets -->
<g id="node9" class="node">
<title>aws_s3_bucket_versioning.assets</title>
<polygon fill="none" stroke="black" points="1144.62,-217 923.88,-217 923.88,-181 1144.62,-181 1144.62,-217"/>
<text xml:space="preserve" text-anchor="middle" x="1034.25" y="-193.2" font-family="sans-serif" font-size="14.00">aws_s3_bucket_versioning.assets</text>
</g>
<!-- aws_s3_bucket_versioning.assets&#45;&gt;aws_s3_bucket.assets -->
<g id="edge11" class="edge">
<title>aws_s3_bucket_versioning.assets&#45;&gt;aws_s3_bucket.assets</title>
<path fill="none" stroke="black" d="M923.61,-209.21C892.47,-212.11 859,-215.22 829.45,-217.97"/>
<polygon fill="black" stroke="black" points="829.48,-214.46 819.84,-218.87 830.12,-221.43 829.48,-214.46"/>
</g>
<!-- aws_security_group.web&#45;&gt;aws_vpc.main -->
<g id="edge12" class="edge">
<title>aws_security_group.web&#45;&gt;aws_vpc.main</title>
<path fill="none" stroke="black" d="M659.83,-118C520.3,-118 238.49,-118 113.84,-118"/>
<polygon fill="black" stroke="black" points="114.14,-114.5 104.14,-118 114.14,-121.5 114.14,-114.5"/>
</g>
<!-- aws_subnet.private&#45;&gt;aws_vpc.main -->
<g id="edge13" class="edge">
<title>aws_subnet.private&#45;&gt;aws_vpc.main</title>
<path fill="none" stroke="black" d="M163.69,-33.84C154.9,-37 146.19,-40.7 138.25,-45 115.5,-57.32 93.31,-76.34 77.16,-91.88"/>
<polygon fill="black" stroke="black" points="75.03,-89.06 70.37,-98.57 79.95,-94.05 75.03,-89.06"/>
</g>
<!-- aws_subnet.public&#45;&gt;aws_vpc.main -->
<g id="edge14" class="edge">
<title>aws_subnet.public&#45;&gt;aws_vpc.main</title>
<path fill="none" stroke="black" d="M410.75,-159.25C343.25,-153.85 232.95,-144.2 138.25,-132 130.3,-130.98 121.95,-129.78 113.71,-128.52"/>
<polygon fill="black" stroke="black" points="114.51,-125.1 104.09,-127.01 113.43,-132.02 114.51,-125.1"/>
</g>
</g>
</svg>
